HIERARCHY
ROOT Hips
{
	OFFSET -3.958830 18.904000 13.208200
	CHANNELS 6 Xposition Yposition Zposition Zrotation Yrotation Xrotation 
	JOINT LHipJoint
	{
		OFFSET 0.000000 0.000000 0.000000
		CHANNELS 3 Zrotation Yrotation Xrotation
		JOINT LeftUpLeg
		{
			OFFSET 1.800000 -1.400000 0.085000
			CHANNELS 3 Zrotation Yrotation Xrotation
			JOINT LeftLeg
			{
				OFFSET 2.215000 -6.000000 0.000000
				CHANNELS 3 Zrotation Yrotation Xrotation
				JOINT LeftFoot
				{
					OFFSET 2.500000 -6.900000 0.000000
					CHANNELS 3 Zrotation Yrotation Xrotation
					JOINT LeftToeBase
					{
						OFFSET 0.200000 -0.500000 1.950000
						CHANNELS 3 Zrotation Yrotation Xrotation
						End Site
						{
							OFFSET 0.000000 0.000000 0.000000
						}
					}
				}
			}
		}
	}
	JOINT RHipJoint
	{
		OFFSET 0.000000 0.000000 0.000000
		CHANNELS 3 Zrotation Yrotation Xrotation
		JOINT RightUpLeg
		{
			OFFSET -1.800000 -1.400000 0.085000
			CHANNELS 3 Zrotation Yrotation Xrotation
			JOINT RightLeg
			{
				OFFSET -2.215000 -6.000000 0.000000
				CHANNELS 3 Zrotation Yrotation Xrotation
				JOINT RightFoot
				{
					OFFSET -2.500000 -6.900000 0.000000
					CHANNELS 3 Zrotation Yrotation Xrotation
					JOINT RightToeBase
					{
						OFFSET -0.200000 -0.500000 1.950000
						CHANNELS 3 Zrotation Yrotation Xrotation
						End Site
						{
							OFFSET 0.000000 0.000000 0.000000
						}
					}
				}
			}
		}
	}
	JOINT LowerBack
	{
		OFFSET 0.000000 0.000000 0.000000
		CHANNELS 3 Zrotation Yrotation Xrotation
		JOINT Spine
		{
			OFFSET -0.087000 1.940000 -0.288900
			CHANNELS 3 Zrotation Yrotation Xrotation
			JOINT Spine1
			{
				OFFSET 0.000000 1.950000 0.060000
				CHANNELS 3 Zrotation Yrotation Xrotation
				JOINT Neck
				{
					OFFSET 0.000000 0.000000 0.000000
					CHANNELS 3 Zrotation Yrotation Xrotation
					JOINT Neck1
					{
						OFFSET 0.000000 1.600000 0.340000
						CHANNELS 3 Zrotation Yrotation Xrotation
						JOINT Head
						{
							OFFSET 0.000000 1.667000 -0.240000
							CHANNELS 3 Zrotation Yrotation Xrotation
							End Site
							{
								OFFSET 0.000000 0.000000 0.000000
							}
						}
					}
				}
				JOINT LeftShoulder
				{
					OFFSET 0.000000 0.000000 0.000000
					CHANNELS 3 Zrotation Yrotation Xrotation
					JOINT LeftArm
					{
						OFFSET 2.700000 1.550000 -0.730000
						CHANNELS 3 Zrotation Yrotation Xrotation
						JOINT LeftForeArm
						{
							OFFSET 5.450000 0.000000 0.000000
							CHANNELS 3 Zrotation Yrotation Xrotation
							JOINT LeftHand
							{
								OFFSET 3.450000 0.000000 0.000000
								CHANNELS 3 Zrotation Yrotation Xrotation
								JOINT LeftHandIndex1
								{
									OFFSET 0.750000 0.000000 0.000000
									CHANNELS 3 Zrotation Yrotation Xrotation
									End Site
									{
										OFFSET 0.000000 0.000000 0.000000
									}
								}
							}
						}
					}
				}
				JOINT RightShoulder
				{
					OFFSET 0.000000 0.000000 0.000000
					CHANNELS 3 Zrotation Yrotation Xrotation
					JOINT RightArm
					{
						OFFSET -2.700000 1.550000 -0.730000
						CHANNELS 3 Zrotation Yrotation Xrotation
						JOINT RightForeArm
						{
							OFFSET -5.450000 0.000000 0.000000
							CHANNELS 3 Zrotation Yrotation Xrotation
							JOINT RightHand
							{
								OFFSET -3.450000 0.000000 0.000000
								CHANNELS 3 Zrotation Yrotation Xrotation
								JOINT RightHandIndex1
								{
									OFFSET -0.750000 0.000000 0.000000
									CHANNELS 3 Zrotation Yrotation Xrotation
									End Site
									{
										OFFSET 0.000000 0.000000 0.000000
									}
								}
							}
						}
					}
				}
			}
		}
	}
}
MOTION
Frames: 6
Frame Time: 0.016667
0.465320 17.481680 -1.727490 -6.250052 24.103457 1.414433 -14.725533 11.982836 2.291154 7.200634 -2.052040 -22.345707 -2.689326 6.361540 25.650712 -0.700757 4.486627 3.229646 0.934280 0.572300 0.542530 18.859330 -11.488250 3.618650 11.231290 5.126974 -13.693860 6.821740 -11.124139 47.694773 -1.261352 -7.970576 2.009945 0.460720 0.329080 -0.075790 -5.597826 2.078278 -7.525003 20.883019 0.142316 12.060414 -10.429595 2.844647 17.680161 4.192840 0.593932 -9.465693 0.974137 -8.462618 28.420619 2.839940 -10.585230 -10.833920 -18.012170 -16.668138 5.955780 -41.839665 -29.632029 13.444025 104.974309 -79.072602 -101.465143 -4.047374 1.057831 0.284530 0.171050 -0.435440 0.356440 10.290875 17.941395 6.561495 44.839457 33.567458 6.683761 28.282153 85.182417 17.658156 1.414718 -2.205146 -0.181630 0.408930 -0.246320 -0.268820 
0.455760 17.380640 -1.745430 -5.610430 24.128540 1.313731 -14.738078 11.974115 2.375681 7.113194 -2.198695 -22.621058 -3.323607 6.908031 27.372667 -0.617265 4.762209 3.104079 0.953060 0.600930 0.559240 18.845272 -11.487645 3.584285 11.511933 4.767846 -12.849805 5.996967 -10.469827 46.915469 -1.235205 -7.753903 2.077111 0.455620 0.278230 -0.087150 -5.563755 2.037498 -7.574199 19.530650 0.265243 13.085220 -9.459356 2.967473 17.008908 3.896005 0.578178 -9.282042 0.911713 -7.975212 29.206332 3.545700 -10.288290 -11.497160 -17.484134 -17.533823 4.883476 -41.720250 -27.234242 4.590610 77.572681 -88.971826 -77.388733 -3.464536 -0.193459 0.302820 0.129370 -0.402530 0.353600 10.444307 18.775102 6.914362 44.206459 33.784932 5.777844 23.950464 84.412974 13.742576 1.424870 -2.168824 -0.158970 0.381850 -0.274340 -0.269240 
0.452790 17.212290 -1.765310 -4.896585 24.223925 1.069052 -14.800837 11.987996 2.617785 7.463133 -2.664142 -23.346947 -4.996329 8.196234 30.719903 -0.471605 5.528887 2.808505 0.927630 0.550580 0.567130 18.772171 -11.406974 3.510982 11.896536 3.965057 -11.292952 4.791830 -9.651135 45.459133 -1.180651 -7.429805 2.177689 0.408480 0.250130 -0.085730 -5.362470 1.725229 -7.726548 17.926001 0.215290 14.374018 -8.891705 3.102804 17.102660 3.678325 0.569854 -9.922542 0.727268 -7.708499 30.082088 3.918170 -10.232230 -11.723620 -18.177754 -19.467643 5.780209 -39.517762 -24.276606 0.728580 25.616894 -87.673266 -28.419109 -3.284900 2.865729 0.343620 0.097340 -0.381630 0.332570 11.324057 21.187982 7.574023 42.767888 33.531621 4.340395 24.937093 84.822695 14.205624 1.439040 -2.151298 -0.159530 0.364460 -0.263440 -0.284950 
0.458220 17.044920 -1.780230 -3.978742 24.864107 0.483205 -14.870134 11.997951 2.884157 7.589403 -3.345105 -24.098569 -6.248935 9.532011 34.758551 -0.233545 6.407706 2.494052 0.864150 0.471130 0.519610 18.699243 -11.295390 3.413279 11.812213 3.049233 -9.344630 4.271274 -9.444430 44.537898 -1.162435 -7.283218 2.245172 0.326690 0.244220 -0.098110 -5.170486 1.330260 -7.898163 16.453428 0.116217 16.045609 -7.562416 3.234182 17.062200 3.019959 -0.427507 -10.642267 -1.335786 -7.209657 32.292153 5.662870 -11.315570 -11.340920 -18.112113 -20.708965 6.289575 -39.644421 -22.485392 -1.616040 1.709838 -80.392635 -6.784258 -3.306619 3.194178 0.364990 0.056090 -0.369230 0.320730 12.526144 23.786877 8.496288 39.983138 32.515269 3.177232 36.620507 85.044640 23.328184 1.557868 -2.174010 -0.147470 0.354880 -0.241110 -0.266190 
0.450800 16.893100 -1.795680 -3.116659 24.771307 -0.330218 -14.912735 11.969763 3.141385 8.058471 -3.943675 -24.592345 -7.771412 10.966853 38.166940 0.026551 7.190234 2.187786 0.875290 0.502280 0.517480 18.650662 -11.206699 3.341011 11.559081 2.432620 -7.503071 3.615397 -9.374487 44.891566 -1.233504 -7.303783 2.240774 0.285890 0.167400 -0.099000 -5.030800 1.057833 -8.104917 15.291835 0.127824 18.172768 -7.168344 3.648929 17.054230 2.686167 -1.311575 -11.306432 -3.367476 -6.582801 35.426986 7.970390 -12.102600 -13.001750 -18.829017 -22.410697 6.312269 -38.842001 -21.421059 -4.170103 -5.047962 -69.815495 -1.403672 -3.225594 3.238171 0.400820 -0.028740 -0.292330 0.313470 13.881129 26.638077 9.776324 38.177342 32.205569 1.570591 42.653460 84.805717 27.230866 1.622852 -2.177149 -0.081920 0.319770 -0.264540 -0.241310 
0.430450 16.754030 -1.801000 -2.162706 24.394103 -1.240648 -15.006997 11.989439 3.457133 8.884413 -4.390288 -25.581486 -9.256672 12.816877 42.055229 0.256560 8.192634 1.819641 0.865710 0.461810 0.542520 18.544222 -11.029459 3.291920 10.987711 2.339381 -5.800373 3.396946 -9.551869 46.036792 -1.323764 -7.453927 2.192886 0.229660 0.096720 -0.115380 -4.708939 0.594885 -8.383473 13.285871 0.662999 21.168399 -6.320089 4.690906 16.271744 2.335068 -1.493825 -12.299185 -4.427499 -6.333441 38.862812 10.128660 -12.662740 -14.365330 -20.583598 -24.424981 6.613915 -36.675580 -19.639892 -5.935999 -10.210255 -64.162063 1.547891 -3.146821 3.242432 0.496060 -0.113120 -0.235480 0.285430 16.202725 29.334479 11.154334 34.907229 30.490882 -1.383626 47.405584 82.755998 29.464820 1.611746 -2.187708 -0.079750 0.305530 -0.263100 -0.268400 
